<?xml version="1.0" standalone="no"?>
<!DOCTYPE svg PUBLIC "-//W3C//DTD SVG 20010904//EN"
 "http://www.w3.org/TR/2001/REC-SVG-20010904/DTD/svg10.dtd">
<svg version="1.0" xmlns="http://www.w3.org/2000/svg"
 width="512.000000pt" height="512.000000pt" viewBox="0 0 512.000000 512.000000"
 preserveAspectRatio="xMidYMid meet">
<metadata>
Created by potrace 1.11, written by Peter Selinger 2001-2013
</metadata>
<g transform="translate(0.000000,512.000000) scale(0.100000,-0.100000)"
fill="#000000" stroke="none">
<path d="M1016 5097 c-17 -18 -27 -47 -40 -123 -9 -54 -20 -115 -24 -134 l-8
-35 -449 -5 c-248 -3 -451 -7 -452 -8 -45 -48 -43 -36 -43 -224 0 -233 7 -248
118 -248 l42 0 0 -1200 0 -1200 -46 0 c-48 0 -81 -13 -101 -39 -9 -11 -12 -70
-13 -194 0 -193 8 -229 52 -241 13 -3 103 -6 200 -6 l178 0 -6 -37 c-3 -21
-12 -74 -19 -118 -8 -44 -16 -91 -19 -105 -2 -14 -7 -36 -10 -50 -3 -14 -8
-43 -11 -65 -3 -22 -14 -87 -25 -145 -11 -58 -22 -121 -25 -140 -3 -19 -19
-109 -35 -200 -16 -91 -32 -181 -35 -200 -7 -44 -24 -138 -29 -167 -3 -11 -8
-43 -12 -70 -3 -26 -8 -56 -10 -67 -2 -10 9 -31 26 -47 l28 -29 264 0 c291 0
297 1 317 63 5 17 13 50 16 72 3 22 19 116 36 210 17 93 33 184 36 200 2 17
24 140 48 275 24 135 46 263 49 285 4 22 9 47 11 55 3 8 7 31 9 50 3 19 10 62
16 95 6 33 14 77 17 98 l6 37 1487 0 1487 0 16 -97 c23 -135 26 -154 34 -188
4 -16 7 -39 8 -50 1 -11 7 -45 13 -75 7 -30 14 -68 16 -85 11 -65 26 -157 56
-325 17 -96 34 -188 36 -205 24 -145 67 -362 75 -377 6 -11 21 -23 35 -28 14
-6 140 -10 280 -10 l256 0 28 29 c17 16 28 37 26 47 -2 11 -7 44 -11 74 -3 30
-10 71 -15 90 -5 19 -11 53 -14 75 -3 22 -8 51 -11 65 -3 14 -7 39 -10 55 -2
17 -20 118 -39 225 -43 241 -86 485 -92 525 -3 17 -9 53 -14 80 -5 28 -11 61
-14 75 -2 14 -7 42 -11 63 l-7 37 178 0 c99 0 189 3 202 6 45 12 53 49 52 242
-2 217 -5 223 -99 230 l-61 4 0 1199 0 1199 43 0 c111 0 118 16 117 248 -1
157 -4 181 -20 202 l-19 25 -488 3 c-268 1 -491 6 -494 10 -4 4 -10 23 -13 42
-3 19 -7 44 -10 55 -2 11 -9 53 -16 93 -20 123 -3 117 -318 120 l-269 3 -32
-26 c-33 -29 -34 -37 -10 -165 5 -30 12 -72 15 -92 l6 -38 -932 0 -932 0 6 38
c3 20 7 46 10 57 2 11 7 40 11 65 4 25 9 53 11 63 5 30 -16 74 -42 86 -17 7
-112 11 -285 11 -258 0 -260 0 -283 -23z"/>
</g>
</svg>
